<svg xmlns="http://www.w3.org/2000/svg" width="181.096" height="36.541" viewBox="0 0 181.096 36.541">
  <g id="logo" transform="translate(-18 -15.954)">
    <text id="BookMyBooks" transform="translate(62.096 42.272)" fill="#4d3fd9" stroke="rgba(0,0,0,0)" stroke-width="1" font-size="20" font-family="SegoeUI-Bold, Segoe UI" font-weight="700"><tspan x="0" y="0">Book</tspan><tspan y="0" fill="#ff7630">My</tspan><tspan y="0">Books</tspan></text>
    <g id="_56_Converted_" data-name="56 [Converted]" transform="translate(18 15.954)">
      <path id="Path_29504" data-name="Path 29504" d="M816.443,802.5V817.92a2.153,2.153,0,0,1-2.148,2.148H788.248c-2,0-2.148-1.749-2.148-3.012V802.5a4.756,4.756,0,0,0,3.978-1.7,4.932,4.932,0,0,0,7.462,0,4.931,4.931,0,0,0,7.462,0,4.932,4.932,0,0,0,7.462,0,4.745,4.745,0,0,0,3.978,1.7" transform="translate(-782.588 -783.526)" fill="#5448d2" fill-rule="evenodd"/>
      <path id="Path_29505" data-name="Path 29505" d="M734.5,671.7h7.462v4.883c0,4.937-7.462,4.937-7.462,0Z" transform="translate(-734.5 -663.123)" fill="#5448d2" fill-rule="evenodd"/>
      <path id="Path_29506" data-name="Path 29506" d="M852.462,671.7H845v4.883c0,4.937,7.462,4.937,7.462,0Z" transform="translate(-837.538 -663.123)" fill="#cbc7ff" fill-rule="evenodd"/>
      <path id="Path_29507" data-name="Path 29507" d="M955.5,671.7h7.462v4.883c0,4.937-7.462,4.937-7.462,0Z" transform="translate(-940.575 -663.123)" fill="#ff7630" fill-rule="evenodd"/>
      <path id="Path_29508" data-name="Path 29508" d="M734.5,553.277h7.462l7.091-8.577h-3.235Z" transform="translate(-734.5 -544.7)" fill="#8377ff" fill-rule="evenodd"/>
      <path id="Path_29509" data-name="Path 29509" d="M852.462,553.277H845l7.091-8.577h2.951Z" transform="translate(-837.538 -544.7)" fill="#fff" fill-rule="evenodd"/>
      <path id="Path_29510" data-name="Path 29510" d="M959.228,553.277h3.735l-2.58-8.577h-2.3l-2.58,8.577Z" transform="translate(-940.575 -544.7)" fill="#ffad82" fill-rule="evenodd"/>
      <path id="Path_29511" data-name="Path 29511" d="M1183.962,671.7H1176.5v4.883c0,4.937,7.462,4.937,7.462,0Z" transform="translate(-1146.65 -663.123)" fill="#5448d2" fill-rule="evenodd"/>
      <path id="Path_29512" data-name="Path 29512" d="M1066,671.7h7.462v4.883c0,4.937-7.462,4.937-7.462,0Z" transform="translate(-1043.613 -663.123)" fill="#cbc7ff" fill-rule="evenodd"/>
      <path id="Path_29513" data-name="Path 29513" d="M1086.053,553.277h-7.462L1071.5,544.7h3.228Z" transform="translate(-1048.741 -544.7)" fill="#8377ff" fill-rule="evenodd"/>
      <path id="Path_29514" data-name="Path 29514" d="M1030.38,553.277h7.462l-7.091-8.577H1027.8Z" transform="translate(-1007.993 -544.7)" fill="#fff" fill-rule="evenodd"/>
      <path id="Path_29515" data-name="Path 29515" d="M780.08,819.086a6.776,6.776,0,0,0-1.189.124.406.406,0,0,0-.322.4v1.365H777.4a.4.4,0,0,0-.287.124.42.42,0,0,0-.115.293v9.415a.408.408,0,0,0,.408.411.4.4,0,0,0,.134-.022,12.775,12.775,0,0,1,3.4-.558,7.809,7.809,0,0,1,3.284.673.438.438,0,0,0,.466,0,7.824,7.824,0,0,1,3.287-.673,12.8,12.8,0,0,1,3.4.558.451.451,0,0,0,.131.022.413.413,0,0,0,.411-.411v-9.418a.413.413,0,0,0-.411-.411h-1.116v-1.358a.411.411,0,0,0-.347-.4,7.183,7.183,0,0,0-3.529.341,4.811,4.811,0,0,0-2.037,1.422,4.549,4.549,0,0,0-2.044-1.486,6.561,6.561,0,0,0-2.347-.405Zm.239.829a5.66,5.66,0,0,1,1.824.338,3.593,3.593,0,0,1,1.9,1.562v7.623a7.05,7.05,0,0,0-1.951-.995,7.948,7.948,0,0,0-2.748-.36l.045-8.108a6.007,6.007,0,0,1,.928-.061Zm8.3.038a6.667,6.667,0,0,1,.944.029v1.473h-.013v6.577a6.126,6.126,0,0,0-2.57.363,9.857,9.857,0,0,0-2.133,1.116v-7.684a3.82,3.82,0,0,1,1.929-1.511,6.388,6.388,0,0,1,1.843-.363Zm-10.811,1.862h.752l-.035,6.654v.013a.25.25,0,0,0,0,.07.4.4,0,0,0,.14.281.41.41,0,0,0,.3.1,7.241,7.241,0,0,1,2.873.306,6.138,6.138,0,0,1,1.986,1.078,8.863,8.863,0,0,0-2.9-.456,12.738,12.738,0,0,0-3.118.443Zm0,0" transform="translate(-765.79 -797.557)" fill="#fff"/>
    </g>
  </g>
</svg>
